#!OML:ASF Y:\EmotionMaleHayes\Project 1\Capture day 1\Session 1\Male1.ASF
:FULLY-SPECIFIED
:DEGREES
267
root 23.187 15.8491 -0.445794 -400.329 79.367 -403.636
lowerback 19.7541 2.71259 4.23975
upperback 3.50141 4.9478 3.30887
thorax -7.18183 2.42602 -0.105534
lowerneck -31.2201 4.02334 4.89539
upperneck 13.1316 4.88533 -6.71565
head 9.41868 1.7448 -2.3558
rclavicle 2.90226e-014 3.73715e-014
rhumerus -35.4427 20.5583 -87.695
rradius 92.4838
rwrist -15.1931
rhand -31.0557 -21.6471
rfingers 7.12502
rthumb -4.33688 -51.5827
lclavicle 2.90226e-014 3.73715e-014
lhumerus -66.4291 -16.3167 103.369
lradius 87.8625
lwrist 22.2861
lhand -33.9275 -29.3478
lfingers 7.12502
lthumb -7.10961 0.512792
rfemur -13.3593 4.01835 34.9998
rtibia 43.7229
rfoot -31.41 -3.78689
rtoes 7.78752
lfemur -17.4788 15.2733 -7.32431
ltibia 68.0262
lfoot 174.133 -10.9572
ltoes -15.007
268
root 23.5731 15.8983 -0.452577 -401.037 78.757 -404.545
lowerback 19.6762 2.90953 4.86925
upperback 3.41907 5.34141 3.38589
thorax -7.17082 2.60116 -0.469223
lowerneck -31.3136 3.84704 4.8756
upperneck 13.2795 4.67473 -6.78333
head 9.47512 1.63359 -2.41372
rclavicle -8.34896e-015 -7.95139e-015
rhumerus -32.7791 20.1748 -87.3735
rradius 93.1602
rwrist -13.9144
rhand -30.2852 -21.2997
rfingers 7.12502
rthumb -3.59286 -51.2491
lclavicle -8.34896e-015 -7.95139e-015
lhumerus -69.0262 -16.4042 103.341
lradius 88.5388
lwrist 22.272
lhand -33.7296 -29.6953
lfingers 7.12502
lthumb -6.91856 0.171616
rfemur -10.9694 4.01673 35.3815
rtibia 41.9954
rfoot -31.5777 -3.42019
rtoes 7.00506
lfemur -21.0321 15.7187 -7.13476
ltibia 67.4903
lfoot 174.053 -10.1601
ltoes -15.8906
269
root 23.9719 15.9569 -0.461311 -400.498 78.0999 -404.27
lowerback 19.5149 3.2247 5.32814
upperback 3.15624 5.84482 3.4117
thorax -7.3102 2.8208 -0.817582
lowerneck -31.1659 3.55602 4.71023
upperneck 13.5992 4.35915 -6.73434
head 9.54265 1.48008 -2.42644
rclavicle 4.57205e-015 -1.78906e-014
rhumerus -30.8825 19.6423 -87.2923
rradius 94.0545
rwrist -12.63
rhand -29.661 -20.8311
rfingers 7.12502
rthumb -2.99011 -50.7899
lclavicle 4.57205e-015 -1.78906e-014
lhumerus -71.921 -16.5488 103.464
lradius 89.3717
lwrist 21.9044
lhand -33.3753 -29.5195
lfingers 7.12502
lthumb -6.5765 0.358353
rfemur -8.50233 4.22276 35.5713
rtibia 40.1474
rfoot -31.5703 -2.90328
rtoes 5.96354
lfemur -24.3539 16.1905 -7.11719
ltibia 67.609
lfoot 173.925 -9.60077
ltoes -16.3888
270
root 24.3989 16.0409 -0.471776 -402.389 77.999 -406.003
lowerback 19.6497 3.27742 5.99528
upperback 2.89592 6.07569 3.40593
thorax -7.58796 2.8978 -1.26808
lowerneck -31.0616 3.24183 4.49935
upperneck 14.2364 3.98213 -6.43117
head 9.71917 1.32039 -2.35379
rclavicle 4.37326e-015 2.94201e-014
rhumerus -29.5331 19.0195 -87.3903
rradius 94.9821
rwrist -11.3551
rhand -29.6021 -19.2839
rfingers 7.12502
rthumb -2.93321 -49.2435
lclavicle 4.37326e-015 2.94201e-014
lhumerus -74.9654 -16.8706 103.745
lradius 90.2674
lwrist 21.7298
lhand -33.0534 -28.9907
lfingers 7.12502
lthumb -6.26573 0.89668
rfemur -4.99263 3.81051 35.5859
rtibia 37.1808
rfoot -30.9998 -2.4139
rtoes 4.78709
lfemur -27.0214 15.7007 -7.02108
ltibia 68.4664
lfoot 173.71 -9.21402
ltoes -14.3313
271
root 24.839 16.1175 -0.471815 -400.098 77.8217 -403.836
lowerback 19.0854 3.7312 5.86215
upperback 2.74646 6.57711 3.25549
thorax -7.41365 3.14028 -1.43774
lowerneck -31.1395 2.82426 4.28857
upperneck 14.7049 3.45571 -6.14792
head 9.85809 1.09121 -2.31256
rclavicle -7.53394e-014 -5.84427e-014
rhumerus -28.2541 18.2401 -87.4075
rradius 96.0343
rwrist -10.3565
rhand -29.8767 -17.6234
rfingers 7.12502
rthumb -3.19842 -47.5792
lclavicle -7.53394e-014 -5.84427e-014
lhumerus -77.6833 -17.3711 104.12
lradius 90.8682
lwrist 21.5771
lhand -32.9285 -29.1907
lfingers 7.12502
lthumb -6.14514 0.700139
rfemur -1.77472 3.89878 34.9592
rtibia 34.1588
rfoot -29.8496 -1.55187
rtoes 3.42022
lfemur -29.716 15.8375 -7.55756
ltibia 69.8454
lfoot 173.72 -9.07894
ltoes -14.3781
272
root 25.2667 16.2008 -0.462687 -395.613 76.8741 -399.898
lowerback 18.1427 4.57376 5.55075
upperback 2.5643 7.52465 3.10994
thorax -7.06487 3.60922 -1.56275
lowerneck -30.8498 2.48533 4.23221
upperneck 14.7334 3.10247 -6.4464
head 9.8095 0.891476 -2.4716
rclavicle -4.7112e-014 -2.98177e-014
rhumerus -27.1293 17.5955 -87.4257
rradius 97.2661
rwrist -10.3243
rhand -30.0601 -17.6829
rfingers 7.12502
rthumb -3.37554 -47.6359
lclavicle -4.7112e-014 -2.98177e-014
lhumerus -80.1782 -18.0304 104.581
lradius 91.0524
lwrist 20.9693
lhand -33.225 -30.419
lfingers 7.12502
lthumb -6.4314 -0.536665
rfemur 0.635694 4.94163 34.5541
rtibia 31.6096
rfoot -28.1872 -0.425099
rtoes 2.5072
lfemur -32.5316 16.9458 -7.96249
ltibia 71.494
lfoot 173.753 -9.32598
ltoes -17.1721
273
root 25.6851 16.325 -0.458628 -397.445 76.0621 -401.973
lowerback 17.9712 4.89564 6.41301
upperback 2.32167 8.127 3.24369
thorax -7.10425 3.87293 -2.01655
lowerneck -31.1016 2.15571 3.67428
upperneck 15.4381 2.77404 -5.86115
head 10.0654 0.76571 -2.23522
rclavicle -3.71727e-014 -3.10104e-014
rhumerus -26.2766 17.2114 -87.4349
rradius 98.8661
rwrist -10.6297
rhand -31.1463 -20.5918
rfingers 7.12502
rthumb -4.42436 -50.5256
lclavicle -3.71727e-014 -3.10104e-014
lhumerus -82.5651 -18.5512 104.937
lradius 91.7315
lwrist 21.2114
lhand -33.1115 -30.1
lfingers 7.12502
lthumb -6.32184 -0.214317
rfemur 3.25256 5.6342 35.3491
rtibia 29.0138
rfoot -26.0134 0.00710009
rtoes 1.66279
lfemur -34.8978 17.1375 -7.11745
ltibia 73.3388
lfoot 173.34 -9.9252
ltoes -16.9748
274
root 26.1081 16.4594 -0.460076 -399.161 75.7659 -403.558
lowerback 18.2782 5.08443 7.04364
upperback 2.08409 8.54783 3.29016
thorax -7.41881 4.03738 -2.44488
lowerneck -31.2831 1.74015 3.35013
upperneck 16.0471 2.31851 -5.65781
head 10.2857 0.551438 -2.19624
rclavicle -1.37161e-014 -1.23246e-014
rhumerus -25.7691 17.0002 -87.4361
rradius 99.7223
rwrist -11.2188
rhand -31.5537 -17.7848
rfingers 7.12502
rthumb -4.81778 -47.71
lclavicle -1.37161e-014 -1.23246e-014
lhumerus -84.9884 -18.8848 105.299
lradius 92.5403
lwrist 21.453
lhand -33.1099 -29.9556
lfingers 7.12502
lthumb -6.32036 -0.0699047
rfemur 6.07293 5.64433 35.5767
rtibia 26.7441
rfoot -23.6392 0.197548
rtoes -0.812466
lfemur -36.5963 16.7557 -6.67345
ltibia 75.6945
lfoot 172.727 -10.8126
ltoes -17.0708
275
root 26.5705 16.5994 -0.476284 -398.065 76.0373 -402.1
lowerback 18.4106 5.35268 7.06514
upperback 1.93916 8.89087 3.0002
thorax -7.56935 4.18195 -2.85992
lowerneck -30.956 1.40112 3.14078
upperneck 16.2255 1.92454 -5.5116
head 10.274 0.377621 -2.17785
rclavicle 2.92213e-014 2.38542e-014
rhumerus -25.5837 16.769 -87.4389
rradius 100.97
rwrist -12.0479
rhand -32.1337 -17.318
rfingers 7.12502
rthumb -5.37778 -47.2297
lclavicle 2.92213e-014 2.38542e-014
lhumerus -87.4694 -19.2728 105.631
lradius 93.4356
lwrist 21.7879
lhand -33.1728 -29.9921
lfingers 7.12502
lthumb -6.38099 -0.108185
rfemur 9.21155 5.1151 34.3442
rtibia 24.2741
rfoot -20.8322 0.740199
rtoes -2.21323
lfemur -37.4762 16.1069 -7.42136
ltibia 78.9242
lfoot 172.277 -12.6749
ltoes -19.2227
276
root 27.0424 16.7461 -0.494815 -396.119 76.3095 -399.843
lowerback 18.3365 5.68372 6.91951
upperback 1.81481 9.25591 2.6652
thorax -7.59648 4.34848 -3.21219
lowerneck -31.2618 0.931747 2.55914
upperneck 17.2137 1.45736 -5.07564
head 10.6562 0.167334 -2.02166
rclavicle 6.2319e-014 5.56597e-015
rhumerus -25.6203 16.5306 -87.3995
rradius 102.455
rwrist -13.3412
rhand -32.6568 -18.3801
rfingers 7.12502
rthumb -5.8829 -48.2785
lclavicle 6.2319e-014 5.56597e-015
lhumerus -89.8357 -19.7574 105.978
lradius 94.3051
lwrist 22.5331
lhand -33.3206 -30.1491
lfingers 7.12502
lthumb -6.5237 -0.269578
rfemur 11.7113 4.37466 32.6432
rtibia 22.5054
rfoot -17.6224 1.72224
rtoes -1.37316
lfemur -37.9771 15.5217 -8.336
ltibia 83.3598
lfoot 165.324 -41.8217
ltoes -19.9322
277
root 27.4996 16.8906 -0.511217 -394.656 76.6696 -398.2
lowerback 18.1747 5.93713 6.72284
upperback 1.67792 9.51336 2.42484
thorax -7.62219 4.46753 -3.40398
lowerneck -31.4476 0.495345 2.13815
upperneck 17.9775 1.00968 -4.83968
head 10.9484 -0.0438638 -1.95886
rclavicle -2.27608e-014 -3.81667e-014
rhumerus -25.593 16.5067 -87.2131
rradius 103.767
rwrist -14.7021
rhand -33.0142 -18.6569
rfingers 7.12502
rthumb -6.22793 -48.5454
lclavicle -2.27608e-014 -3.81667e-014
lhumerus -91.9294 -20.0397 106.294
lradius 95.1843
lwrist 23.5505
lhand -33.2879 -30.2343
lfingers 7.12502
lthumb -6.49215 -0.353778
rfemur 13.9411 3.5511 30.9629
rtibia 20.755
rfoot -14.5187 2.7966
rtoes -1.13887
lfemur -38.4482 14.7747 -9.13999
ltibia 87.5806
lfoot 143.751 -69.4263
ltoes -19.5106
278
root 27.9557 17.0301 -0.527011 -393.877 76.9275 -397.425
lowerback 17.9309 6.11438 6.7226
upperback 1.44405 9.71175 2.20845
thorax -7.68634 4.54804 -3.65838
lowerneck -31.4846 0.238752 2.02056
upperneck 18.5826 0.741558 -4.87798
head 11.1719 -0.184525 -2.01278
rclavicle -4.52235e-014 1.94809e-014
rhumerus -25.6531 16.7852 -87.1305
rradius 104.895
rwrist -16.356
rhand -33.1521 -19.2559
rfingers 7.12502
rthumb -6.36101 -49.1404
lclavicle -4.52235e-014 1.94809e-014
lhumerus -93.883 -20.072 106.45
lradius 95.9765
lwrist 24.2752
lhand -33.2291 -30.6102
lfingers 7.12502
lthumb -6.43539 -0.727997
rfemur 15.8399 2.62968 29.439
rtibia 19.1315
rfoot -11.0767 3.75875
rtoes -1.03386
lfemur -38.8953 14.0845 -9.65519
ltibia 89.1149
lfoot 38.42 -72.9604
ltoes -17.9696
279
root 28.4227 17.1628 -0.539966 -393.377 76.8496 -397.094
lowerback 17.5336 6.35528 6.97581
upperback 1.12024 10.0336 1.97111
thorax -7.70385 4.67971 -4.07829
lowerneck -30.9018 0.172166 2.02556
upperneck 18.8106 0.681506 -4.95255
head 11.1583 -0.217076 -2.05035
rclavicle -9.26337e-014 3.61788e-014
rhumerus -25.9715 16.9455 -87.1758
rradius 106.065
rwrist -18.0137
rhand -33.4157 -19.5496
rfingers 7.12502
rthumb -6.61557 -49.4263
lclavicle -9.26337e-014 3.61788e-014
lhumerus -95.8101 -20.1957 106.523
lradius 96.6615
lwrist 24.6763
lhand -33.3682 -31.0546
lfingers 7.12502
lthumb -6.56967 -1.17651
rfemur 17.4495 1.72671 28.1032
rtibia 17.6901
rfoot -6.02471 4.17868
rtoes 2.98504
lfemur -39.1749 13.7194 -9.81375
ltibia 86.7841
lfoot 9.55 -46.4367
ltoes -15.6528
